# xmcd CD database file
#
# Track frame offsets:
#	150
#	16264
#	43916
#	59692
#	81585
#	109513
#	148353
#	161796
#	174935
#	197825
#	219229
#
# Disc length: 3213 seconds
#
# Revision: 0
# Processed by: cddbd v1.5PL3 Copyright (c) Steve Scherf et al.
# Submitted via: CDex 1.51
#
DISCID=a10c8b0b
DTITLE=Ad van der Veen - The O'Niels
DYEAR=1998
DGENRE=Blues
TTITLE0=Instant Song
TTITLE1=Eyes Never Lies
TTITLE2=14 Turns to 14
TTITLE3=Love Alive
TTITLE4=Crazy Moon
TTITLE5=Stray Bullet
TTITLE6=Love and Forgiveness
TTITLE7=Pocket Ful Of Pearls
TTITLE8=Train (electric)
TTITLE9=More Than A Song To Sing
TTITLE10=14/41 Reprise
EXTD=YEAR: 1998
EXTT0=
EXTT1=
EXTT2=
EXTT3=
EXTT4=
EXTT5=
EXTT6=
EXTT7=
EXTT8=
EXTT9=
EXTT10=
PLAYORDER=
